<svg xmlns="http://www.w3.org/2000/svg" height="511pt" version="1.1" viewBox="-88 0 511 511.998" width="511pt">
<g id="surface1">
<path d="M 168.320312 232.46875 C 150.925781 232.46875 136.773438 246.621094 136.773438 264.015625 C 136.773438 281.410156 150.925781 295.5625 168.320312 295.5625 C 185.71875 295.5625 199.867188 281.410156 199.867188 264.015625 C 199.867188 246.621094 185.71875 232.46875 168.320312 232.46875 Z M 168.320312 280.5625 C 159.195312 280.5625 151.773438 273.140625 151.773438 264.015625 C 151.773438 254.890625 159.195312 247.46875 168.320312 247.46875 C 177.445312 247.46875 184.867188 254.890625 184.867188 264.015625 C 184.867188 273.140625 177.445312 280.5625 168.320312 280.5625 Z M 168.320312 280.5625 " style=" stroke:none;fill-rule:nonzero;fill:rgb(0%,0%,0%);fill-opacity:1;" />
<path d="M 323.671875 231.324219 L 296.0625 225.804688 L 296.0625 215.921875 C 296.0625 207.363281 289.101562 200.402344 280.546875 200.402344 L 272.53125 200.402344 C 267.824219 200.402344 264 196.574219 264 191.871094 L 264 175.324219 L 280.546875 175.324219 C 289.101562 175.324219 296.0625 168.363281 296.0625 159.808594 L 296.0625 143.777344 C 296.0625 135.21875 289.101562 128.261719 280.546875 128.261719 L 264 128.261719 L 264 127.742188 C 264 83.105469 233.269531 45.511719 191.855469 34.996094 L 191.855469 15.519531 C 191.851562 6.960938 184.894531 0 176.335938 0 L 160.304688 0 C 151.75 0 144.789062 6.960938 144.789062 15.515625 L 144.789062 34.996094 C 103.375 45.507812 72.644531 83.101562 72.644531 127.742188 L 72.644531 128.257812 L 56.097656 128.257812 C 47.539062 128.257812 40.578125 135.21875 40.578125 143.773438 L 40.578125 159.804688 C 40.578125 168.363281 47.539062 175.320312 56.097656 175.320312 L 72.644531 175.320312 L 72.644531 191.871094 C 72.644531 196.574219 68.816406 200.402344 64.113281 200.402344 L 56.097656 200.402344 C 47.539062 200.402344 40.578125 207.363281 40.578125 215.917969 L 40.578125 225.800781 L 12.972656 231.324219 C 5.746094 232.769531 0.5 239.167969 0.5 246.539062 L 0.5 281.492188 C 0.5 288.863281 5.746094 295.261719 12.972656 296.707031 L 40.578125 302.226562 L 40.578125 312.113281 C 40.578125 320.667969 47.539062 327.628906 56.097656 327.628906 L 64.113281 327.628906 C 68.816406 327.628906 72.644531 331.457031 72.644531 336.160156 L 72.644531 464.933594 L 40.0625 464.933594 C 31.507812 464.933594 24.546875 471.894531 24.546875 480.449219 L 24.546875 496.480469 C 24.546875 505.039062 31.507812 511.996094 40.0625 511.996094 L 296.578125 511.996094 C 305.136719 511.996094 312.097656 505.039062 312.097656 496.480469 L 312.097656 480.449219 C 312.097656 471.894531 305.136719 464.933594 296.578125 464.933594 L 264 464.933594 L 264 336.160156 C 264 331.457031 267.828125 327.628906 272.53125 327.628906 L 280.546875 327.628906 C 289.101562 327.628906 296.0625 320.667969 296.0625 312.113281 L 296.0625 302.230469 L 323.671875 296.707031 C 330.898438 295.261719 336.144531 288.863281 336.144531 281.492188 L 336.144531 246.539062 C 336.144531 239.167969 330.898438 232.769531 323.671875 231.324219 Z M 159.789062 15.515625 C 159.789062 15.230469 160.019531 15 160.304688 15 L 176.335938 15 C 176.621094 15 176.851562 15.230469 176.851562 15.515625 L 176.851562 32.449219 C 174.039062 32.199219 171.195312 32.0625 168.320312 32.0625 C 165.445312 32.0625 162.601562 32.199219 159.789062 32.449219 Z M 55.578125 159.808594 L 55.578125 143.773438 C 55.578125 143.488281 55.808594 143.257812 56.09375 143.257812 L 208.40625 143.257812 C 212.546875 143.257812 215.90625 139.902344 215.90625 135.757812 C 215.90625 131.617188 212.546875 128.257812 208.40625 128.257812 L 87.644531 128.257812 L 87.644531 127.742188 C 87.644531 83.257812 123.835938 47.066406 168.320312 47.066406 C 212.804688 47.066406 248.996094 83.257812 248.996094 127.742188 L 248.996094 128.257812 L 240.46875 128.257812 C 236.324219 128.257812 232.96875 131.617188 232.96875 135.757812 C 232.96875 139.902344 236.324219 143.257812 240.46875 143.257812 L 280.546875 143.257812 C 280.832031 143.257812 281.0625 143.488281 281.0625 143.773438 L 281.0625 159.808594 C 281.0625 160.09375 280.832031 160.324219 280.546875 160.324219 L 56.09375 160.324219 C 55.8125 160.324219 55.578125 160.089844 55.578125 159.808594 Z M 15.914062 282 C 15.671875 281.949219 15.496094 281.738281 15.496094 281.492188 L 15.496094 246.539062 C 15.496094 246.292969 15.671875 246.082031 15.914062 246.03125 L 40.578125 241.101562 L 40.578125 286.933594 Z M 280.546875 312.628906 L 272.53125 312.628906 C 259.554688 312.628906 249 323.183594 249 336.160156 L 249 464.933594 L 128.238281 464.933594 C 124.09375 464.933594 120.738281 468.292969 120.738281 472.433594 C 120.738281 476.578125 124.09375 479.933594 128.238281 479.933594 L 296.578125 479.933594 C 296.863281 479.933594 297.09375 480.164062 297.09375 480.449219 L 297.09375 496.484375 C 297.09375 496.769531 296.863281 497 296.578125 497 L 40.0625 497 C 39.777344 497 39.546875 496.769531 39.546875 496.484375 L 39.546875 480.449219 C 39.546875 480.164062 39.777344 479.933594 40.0625 479.933594 L 96.179688 479.933594 C 100.320312 479.933594 103.679688 476.578125 103.679688 472.433594 C 103.679688 468.292969 100.320312 464.933594 96.179688 464.933594 L 87.644531 464.933594 L 87.644531 336.160156 C 87.644531 323.183594 77.085938 312.628906 64.113281 312.628906 L 56.097656 312.628906 C 55.8125 312.628906 55.578125 312.398438 55.578125 312.113281 L 55.578125 215.921875 C 55.578125 215.636719 55.8125 215.402344 56.097656 215.402344 L 64.113281 215.402344 C 77.089844 215.402344 87.644531 204.847656 87.644531 191.871094 L 87.644531 175.324219 L 248.996094 175.324219 L 248.996094 191.871094 C 248.996094 204.847656 259.554688 215.402344 272.53125 215.402344 L 280.546875 215.402344 C 280.832031 215.402344 281.0625 215.636719 281.0625 215.921875 L 281.0625 312.113281 C 281.0625 312.398438 280.832031 312.628906 280.546875 312.628906 Z M 321.144531 281.492188 C 321.144531 281.738281 320.96875 281.949219 320.730469 282 L 296.0625 286.933594 L 296.0625 241.101562 L 320.730469 246.03125 C 320.96875 246.082031 321.144531 246.292969 321.144531 246.539062 Z M 321.144531 281.492188 " style=" stroke:none;fill-rule:nonzero;fill:rgb(0%,0%,0%);fill-opacity:1;" />
<path d="M 197.03125 215.28125 C 200.601562 217.382812 205.199219 216.199219 207.304688 212.632812 C 209.410156 209.0625 208.222656 204.464844 204.65625 202.359375 C 176.519531 185.761719 140.753906 190.285156 117.671875 213.367188 C 94.59375 236.445312 90.066406 272.214844 106.664062 300.351562 C 108.066406 302.722656 110.566406 304.039062 113.132812 304.039062 C 114.425781 304.039062 115.738281 303.703125 116.9375 302.996094 C 120.503906 300.894531 121.6875 296.296875 119.585938 292.726562 C 106.460938 270.484375 110.035156 242.214844 128.277344 223.972656 C 146.519531 205.734375 174.792969 202.15625 197.03125 215.28125 Z M 197.03125 215.28125 " style=" stroke:none;fill-rule:nonzero;fill:rgb(0%,0%,0%);fill-opacity:1;" />
<path d="M 219.707031 225.03125 C 216.140625 227.136719 214.953125 231.734375 217.058594 235.304688 C 230.179688 257.546875 226.605469 285.816406 208.363281 304.058594 C 190.121094 322.300781 161.851562 325.875 139.609375 312.753906 C 136.042969 310.648438 131.441406 311.835938 129.339844 315.402344 C 127.234375 318.96875 128.417969 323.566406 131.984375 325.671875 C 143.316406 332.359375 155.886719 335.617188 168.367188 335.617188 C 186.875 335.617188 205.1875 328.449219 218.96875 314.667969 C 242.050781 291.585938 246.574219 255.816406 229.976562 227.683594 C 227.871094 224.113281 223.273438 222.929688 219.707031 225.03125 Z M 219.707031 225.03125 " style=" stroke:none;fill-rule:nonzero;fill:rgb(0%,0%,0%);fill-opacity:1;" />
</g>
</svg>